<svg id="platform" xmlns="http://www.w3.org/2000/svg" xmlns:xlink="http://www.w3.org/1999/xlink" width="160" height="30" viewBox="0 0 160 30"><defs><style>.cls-1{fill:#42210b;}.cls-2{fill:url(#Gradiente_sem_nome_4);}.cls-3{fill:#8ac83c;}.cls-4{fill:url(#Gradiente_sem_nome_37);}.cls-5{opacity:0.4;}.cls-6{fill:#40a648;}.cls-7{opacity:0.5;}.cls-8{fill:url(#Gradiente_sem_nome_59);}.cls-9{fill:#c1272d;}.cls-10{fill:url(#Gradiente_sem_nome_64);}</style><linearGradient id="Gradiente_sem_nome_4" x1="80" y1="2.01" x2="80" y2="29" gradientUnits="userSpaceOnUse"><stop offset="0.55" stop-color="#603813"/><stop offset="1" stop-color="#42210b"/></linearGradient><linearGradient id="Gradiente_sem_nome_37" x1="119.9" y1="2.61" x2="119.9" y2="11.23" gradientUnits="userSpaceOnUse"><stop offset="0" stop-color="#a1c73f" stop-opacity="0"/><stop offset="0.54" stop-color="#a1c73f"/><stop offset="1" stop-color="#a1c73f"/></linearGradient><linearGradient id="Gradiente_sem_nome_59" x1="32.89" y1="2.74" x2="30.1" y2="7.56" gradientUnits="userSpaceOnUse"><stop offset="0" stop-color="#6cb13f" stop-opacity="0"/><stop offset="0.09" stop-color="#6cb13f" stop-opacity="0.02"/><stop offset="0.17" stop-color="#6cb13f" stop-opacity="0.07"/><stop offset="0.24" stop-color="#6cb13f" stop-opacity="0.17"/><stop offset="0.3" stop-color="#6cb13f" stop-opacity="0.3"/><stop offset="0.36" stop-color="#6cb13f" stop-opacity="0.47"/><stop offset="0.42" stop-color="#6cb13f" stop-opacity="0.69"/><stop offset="0.48" stop-color="#6cb13f" stop-opacity="0.93"/><stop offset="0.49" stop-color="#6cb13f"/><stop offset="1" stop-color="#6cb13f"/></linearGradient><linearGradient id="Gradiente_sem_nome_64" x1="60.25" y1="18.81" x2="60.25" y2="25.19" gradientUnits="userSpaceOnUse"><stop offset="0" stop-color="#ffe6bf"/><stop offset="1" stop-color="#b49a70"/></linearGradient></defs><g id="platform-2" data-name="platform"><g id="floor"><path class="cls-1" d="M5.2,26.5C2.9,25,2.1,22,2.3,19.2S3.6,14,4.1,11.3a21.6,21.6,0,0,1,1-4.4c1.5-3.8,5.9-5.5,10-5.5s7.8,1.4,11.8,2.2a38.2,38.2,0,0,0,11.7.5C44.1,3.5,49.4,1.6,55,1.5s9.4,1,14.1,1.6a58.5,58.5,0,0,0,18.2-.4c2.9-.4,5.9-1.2,8.9-.7s6.5,2.8,9.9,4c9.4,3.3,19.5-2,29.3-4A88.3,88.3,0,0,1,149,.6a9.2,9.2,0,0,1,4.4.5,6.6,6.6,0,0,1,2.7,2.8,11.2,11.2,0,0,1-3.5,13.9h3.3c1.4.3,2.1,2,1.8,3.4a7.1,7.1,0,0,1-2.5,3.4,8.6,8.6,0,0,1-4.8,2.7c-2.3.2-4.5-1.1-6.8-1.6s-6.8.4-10.2.9a28,28,0,0,1-10.4-.2c-2.4-.5-5-1.3-7.4-.8s-2.6.9-3.9,1.3a20.7,20.7,0,0,1-5,.4,106.1,106.1,0,0,1-15.9-1c-3.6-.6-7.2-1.5-10.9-1.2s-5.4,1.3-8.1,1.6-5.9-.3-7.4-2.6a2.1,2.1,0,0,1-.7,1.8A39.6,39.6,0,0,1,51.3,27c-4-.4-8-1.4-12-1.1S33.8,27,31,27.4a22.6,22.6,0,0,1-13.9-2.8A20.6,20.6,0,0,1,4.9,26.9"/></g><g id="platform-3" data-name="platform"><path class="cls-2" d="M5.2,27.9c-2.3-1.4-3.1-4.5-2.9-7.2s1.3-5.3,1.8-8a21.6,21.6,0,0,1,1-4.4c1.5-3.7,5.9-5.5,10-5.4s7.8,1.4,11.8,2.2a38.2,38.2,0,0,0,11.7.4C44.1,4.9,49.4,3.1,55,3s9.4,1,14.1,1.6a65.3,65.3,0,0,0,18.2-.4c2.9-.5,5.9-1.2,8.9-.7s6.5,2.8,9.9,4c9.4,3.3,19.5-2,29.3-4.1A88.2,88.2,0,0,1,149,2.1a8.1,8.1,0,0,1,4.4.5,6.1,6.1,0,0,1,2.7,2.8,11.2,11.2,0,0,1-3.5,13.9h3.3c1.4.3,2.1,2.1,1.8,3.4a7.8,7.8,0,0,1-2.5,3.5c-1.4,1.2-2.9,2.4-4.8,2.6s-4.5-1-6.8-1.5-6.8.4-10.2.9a30.3,30.3,0,0,1-10.4-.2c-2.4-.5-5-1.3-7.4-.8s-2.6.9-3.9,1.2a14,14,0,0,1-5,.4,94.3,94.3,0,0,1-15.9-.9c-3.6-.6-7.2-1.6-10.9-1.2s-5.4,1.3-8.1,1.6-5.9-.4-7.4-2.7a2.3,2.3,0,0,1-.7,1.9,36.8,36.8,0,0,1-12.4,1c-4-.3-8-1.3-12-1s-5.5,1.1-8.3,1.4a23.3,23.3,0,0,1-13.9-2.7A19.8,19.8,0,0,1,4.9,28.3"/></g></g><g id="bush"><g id="bush-2" data-name="bush"><path class="cls-3" d="M101.7,7.5a.7.7,0,0,0-.9.3c-.3.2-.3.6-.4,1a3.9,3.9,0,0,0,.3,2.4,2.7,2.7,0,0,0,1,.8,3.4,3.4,0,0,0,3.2-.5c0,.5.4.8.9.9a.9.9,0,0,0,.9-.8,3.4,3.4,0,0,0,1.1.7,1,1,0,0,0,1-.6c0-.4-.3-.7-.4-1s-.1-.9.3-.9a5.3,5.3,0,0,1,1.2,1.4,1.2,1.2,0,0,0,1.8-.5,1,1,0,0,0,1.2-.1.9.9,0,0,0,.2-1.1c-.4,0-.6-.5-.5-.8s.5-.6.8-.8a1.4,1.4,0,0,0,2.3.7,2.4,2.4,0,0,0,3.3,1,1,1,0,0,0,1.3,1,2.8,2.8,0,0,0-1.2,1.2,1.2,1.2,0,0,0,.4,1.5.9.9,0,0,0,1.3-.6c0-.1-.1-.3,0-.5s.7-.6,1.3-.6,1.2,0,1.3-.5a2.5,2.5,0,0,0,2,.7,1.3,1.3,0,0,0,1-1.6,4.4,4.4,0,0,0,1.6.2c.5-.1,1.1-.6,1-1.1s-.5-.9-.9-1.2,1,.2,1.4.4,1.2.3,1.3-.2.8,1.3,1.5,1.4a1.3,1.3,0,0,0,1.3-1.5,2.2,2.2,0,0,0-1.2-1.8,1.2,1.2,0,0,0,1.2-1.5,1.4,1.4,0,0,0-1.9-.7,2,2,0,0,0,.4-2.5,2.1,2.1,0,0,0-2.4-.9,2.5,2.5,0,0,0-1.8,1.8c-.1-.6-.9-1-1.5-1.1a4.6,4.6,0,0,0-2,.5c.1-.4.1-1-.3-1.2s-1.2.8-1.9.6-.5-.6-.7-.9a1.2,1.2,0,0,0-1.9-.1,1.3,1.3,0,0,0,.3,1.8,3,3,0,0,0-2.7-.8A3.1,3.1,0,0,0,115,3.2,4.1,4.1,0,0,0,113.7.6a3.3,3.3,0,0,0-2.2-.6c-1.5,0-3.3.5-3.7,2,0-.8-.9-1.5-1.6-1.1a1.1,1.1,0,0,0-1.1-.9,1.6,1.6,0,0,0-1.2.9c-.1.1-.1.3-.3.4s-.6-.1-.9-.3A2.6,2.6,0,0,0,100,.6c-.3.1-.6.4-.9.4s-.8-.3-.7-.7L96.3,1c.4,0,.3.8-.1,1a2.7,2.7,0,0,1-1.3-.2,1.2,1.2,0,0,0-1.2.3c-.3.4-.2,1,.3,1s-.4.9,0,1.1a6.8,6.8,0,0,0,1.4.2c.5.1.9.7.5,1s-.5.1-.8.1a1.4,1.4,0,0,0-1.1.4A.8.8,0,0,0,94,7a.6.6,0,0,0,1-.2.7.7,0,0,1,.1,1.1l-.3.3c-.3.3.1.8.5.8a1.4,1.4,0,0,0,.9-.8c.1-.3.2-.7.5-.7a.6.6,0,0,1,.5.6A2.9,2.9,0,0,0,97,9c0,.7,1,1.2,1.7.9A1.7,1.7,0,0,0,99.4,8h1.1"/></g><g id="bush-sw"><path class="cls-4" d="M113.5,6.3a1.8,1.8,0,0,0,.8,1.5,1.5,1.5,0,0,0,1.6,0,1.8,1.8,0,0,0,1.2,1.7,1.8,1.8,0,0,0,2-.6,1.2,1.2,0,0,0,.6,1.4,1.1,1.1,0,0,0,1.3-.4.7.7,0,0,0,.4.7.9.9,0,0,0,.7.1,1,1,0,0,0,1-.6,1,1,0,0,0,.9,1.1,1,1,0,0,0,1.1-1c.5.2,1.1-.2,1.4-.7a3,3,0,0,0,.5-1.6.9.9,0,0,0-.1-.5.8.8,0,0,0-.4-.4,1.7,1.7,0,0,0-1.8,0c.2-.4-.2-.9-.6-1.1a1.7,1.7,0,0,0-1.4.3,2.5,2.5,0,0,0,.1-1.7,2.1,2.1,0,0,0-1.1-1.3,2.7,2.7,0,0,0-1.2-.3,2.1,2.1,0,0,0-1.8.8,1.6,1.6,0,0,0-1.4-1.1,2.6,2.6,0,0,0-1.7.5,1.5,1.5,0,0,0-.4,1.7,2.3,2.3,0,0,0-1.1-.3,1.4,1.4,0,0,0-1,.4l-.3.6a2.8,2.8,0,0,0,.1.9,1.1,1.1,0,0,0,.8.3l.9-.2"/></g><g id="bush-sw-2" data-name="bush-sw" class="cls-5"><path class="cls-6" d="M98.8,5.1h-.3a1.2,1.2,0,0,1,.1-1.4,1.2,1.2,0,0,1,1.4-.1,1.1,1.1,0,0,1,.1-1,1.4,1.4,0,0,1,1.4-.4l.8.3a1,1,0,0,1,.4.7,1.1,1.1,0,0,1,.8-.7,2.2,2.2,0,0,1,1.9.4,1.6,1.6,0,0,1,.5,1.7l.4.3c.3-.1.5-.7.8-.7s.3.4.3.7a2.1,2.1,0,0,1,1.5-.8.7.7,0,0,1,.6.3v.2l.2.2h.2c.2-.5-.1-1,.2-1.4a.8.8,0,0,1,.9-.3,2,2,0,0,1,1.7,1.7,1.3,1.3,0,0,1-.1.6c-.2.4-.7.5-1.2.6s-.4,0-.5-.2a4.1,4.1,0,0,1,.1,1.1,1.7,1.7,0,0,1-1.1,1.2,1.8,1.8,0,0,1-1.6-.5c-.1-.1-.2-.3-.4-.3a.8.8,0,0,0-.2.4,1.5,1.5,0,0,1-.6.9.7.7,0,0,1-.9,0,1.4,1.4,0,0,0,.4-1.9l-.4-.2c-.3.1-.3.5-.6.4s-.1-.2-.2-.3a1.3,1.3,0,0,0-.9-.2c-.3.1-.7.1-.8-.2s-.4.9-.8,1a.9.9,0,0,1-1.1-.2,1.6,1.6,0,0,1-.5-1,2.6,2.6,0,0,1-1.4,1.1,1.1,1.1,0,0,1-1.1-.2c-.1-.1-.1-.3-.2-.4s-.2-.9.1-1.2a.8.8,0,0,1,.8-.1"/></g><g id="bush-sw-3" data-name="bush-sw" class="cls-5"><path class="cls-6" d="M122.2,6.2a1.4,1.4,0,0,0-.6-1.2c-.2-.1-.5-.2-.6-.4a.5.5,0,0,1,.1-.7l.8-.2a1.5,1.5,0,0,1,1.6-.9,1.5,1.5,0,0,1,1.2,1.3,2.1,2.1,0,0,1,2.6,1,.8.8,0,0,1,0,.8c-.2.3-.6.3-1,.3a1,1,0,0,1-.2,1.5,1.1,1.1,0,0,1-1.5-.1,1.4,1.4,0,0,1-1.6.7l-.3-.2c-.3-.2-.2-.7,0-1a.8.8,0,0,1,.4-.4.6.6,0,0,1,.6.1l-1.4-.5"/></g></g><g id="bush-3" data-name="bush"><g id="bush-4" data-name="bush"><path class="cls-3" d="M27.1,7.2a.8.8,0,0,1-.8-.1c-.1-.2-.1-.6.1-.6a1.6,1.6,0,0,1-1-.8.7.7,0,0,1-.1-.6c0-.2.3-.3.5-.2a1.1,1.1,0,0,0,0-.8.8.8,0,0,1,.3-.7h.4c.6,0,.7-1.1,1.3-1.1l.8.2c.6,0,.7-.9,1.2-1.2a.7.7,0,0,1,.9.2.9.9,0,0,1,.1,1.1,1.1,1.1,0,0,1,1,.1,1.7,1.7,0,0,1,1.4-1.2,1.3,1.3,0,0,1,1.3,1.1A1.5,1.5,0,0,1,36.1,2a1.5,1.5,0,0,1,1,1.5c.6-.2.8-1,1.4-1.3h.7c.9,0,2,.1,2.4.9a5,5,0,0,1,.3,1.3,1.3,1.3,0,0,1-.1.6,1,1,0,0,1-.9.6l-1.1-.2a.9.9,0,0,1-.9,1.1c-.2.4.3.9.1,1.3l-.3.3c-.4.3-1.1.4-1.3-.1a.8.8,0,0,1-.2-.4c-.1-.2-.2-.4-.4-.3s-.4.4-.4.7a1.4,1.4,0,0,1-1,1.1c-.6,0-1.1-.6-.8-1.1s.2-.2.1-.3-.2-.2-.3-.1l-.3.3a1.1,1.1,0,0,1-1.3.5l-.2-.2c0-.1.2-.2.2-.3s-.1-.6-.4-.6a1.1,1.1,0,0,0-.6.7c-.1.2-.1.5-.2.8a1.3,1.3,0,0,1-1.6.6,1.6,1.6,0,0,1-.9-1.5,1.1,1.1,0,0,1,.7-.9l-1.1.3a.7.7,0,0,1-.7-.8,3.1,3.1,0,0,1-1.1.9"/></g><g id="bush-sw-4" data-name="bush-sw" class="cls-7"><path class="cls-8" d="M26.7,4.4c-.2.1-.4.2-.4.5a.4.4,0,0,0,.4.4.5.5,0,0,0,.1.7.8.8,0,0,0,.8.1,1.7,1.7,0,0,0,.6-.6c-.2.2-.1.5,0,.7a1,1,0,0,0,.7.2,1,1,0,0,0,.6-.5.7.7,0,0,0,.4.6c.3.2.5.1.8.1s-.4.4-.3.7.2.3.4.4h.6a1.8,1.8,0,0,0,.7-.5,1,1,0,0,0-.1-.9,1.1,1.1,0,0,0,1,.6c.2,0,.5,0,.6-.3a1,1,0,0,0,1,.7,1.1,1.1,0,0,0,.8-.9.9.9,0,0,0,1.1-.5A1,1,0,0,0,36,4.6c-.2-.2-.6-.2-.7,0a.7.7,0,0,0-.6-.4.5.5,0,0,0-.5.3h-.9a.8.8,0,0,0-.7.5.9.9,0,0,0,.1-.9,1.8,1.8,0,0,0-.7-.5,1.4,1.4,0,0,0-.9,0,1,1,0,0,0-.6.5.5.5,0,0,0-.3-.4h-.5A.7.7,0,0,0,29,4a.9.9,0,1,0-1.7.7c-.1-.2-.4-.3-.6-.4"/></g></g><g id="flower"><g id="petals"><circle class="cls-9" cx="60.3" cy="17" r="3"/><circle class="cls-9" cx="55.9" cy="19.5" r="3"/><circle class="cls-9" cx="55.9" cy="24.5" r="3"/><circle class="cls-9" cx="60.3" cy="27" r="3"/><circle class="cls-9" cx="64.6" cy="24.5" r="3"/><circle class="cls-9" cx="64.6" cy="19.5" r="3"/></g><circle id="circle" class="cls-10" cx="60.3" cy="22" r="3.2"/></g></svg>