<svg id="platform" xmlns="http://www.w3.org/2000/svg" xmlns:xlink="http://www.w3.org/1999/xlink" width="160" height="30" viewBox="0 0 160 30"><defs><style>.cls-1{fill:#42210b;}.cls-2{fill:url(#Gradiente_sem_nome_38);}.cls-3{fill:url(#Gradiente_sem_nome_24);}.cls-4{fill:#8ac83c;}.cls-5{opacity:0.5;}.cls-6{fill:#40a648;}.cls-7{fill:url(#Gradiente_sem_nome_62);}.cls-8{opacity:0.3;}.cls-9{fill:#a10035;}.cls-10{fill:url(#Gradiente_sem_nome_76);}.cls-11{fill:#ff869e;}</style><linearGradient id="Gradiente_sem_nome_38" x1="148.5" y1="10" x2="148.5" y2="22.67" gradientUnits="userSpaceOnUse"><stop offset="0.21" stop-color="#8ac83c"/><stop offset="0.5" stop-color="#40a648"/></linearGradient><linearGradient id="Gradiente_sem_nome_24" x1="75.18" y1="4.24" x2="75.18" y2="30" gradientUnits="userSpaceOnUse"><stop offset="0.62" stop-color="#603813"/><stop offset="1" stop-color="#42210b"/></linearGradient><linearGradient id="Gradiente_sem_nome_62" x1="29.87" y1="1.97" x2="38.73" y2="17.32" gradientUnits="userSpaceOnUse"><stop offset="0" stop-color="#40a648" stop-opacity="0"/><stop offset="0.64" stop-color="#40a648"/></linearGradient><linearGradient id="Gradiente_sem_nome_76" x1="151.83" y1="7.69" x2="151.83" y2="11.31" gradientUnits="userSpaceOnUse"><stop offset="0.23" stop-color="#ffe6bf"/><stop offset="1" stop-color="#b69e78"/></linearGradient></defs><g id="platform-2" data-name="platform"><g id="floor"><path class="cls-1" d="M6,28.6,1,27.4l5.7-2.8L4.8,20.5a3.2,3.2,0,0,0,3.1-4.4c-.8-1.6-2.6-2.3-3.4-3.8s-.1-3.9.8-5.7a4.4,4.4,0,0,1,1.5-2,3.8,3.8,0,0,1,1.8-.3c6.1-.4,12.2-.5,18.2-.3,2.4,0,5.5.7,5.8,3L34,5.3a13.6,13.6,0,0,1,2.4,3.8A6.9,6.9,0,0,1,41.1,4a16,16,0,0,1,7.2-.6A52,52,0,0,1,63.4,7a20.8,20.8,0,0,0,5.8,1.9,20.2,20.2,0,0,0,6.5-.5l9.2-2c7.5-1.5,15.6-3,22.5.2a5.2,5.2,0,0,0,1.3.6,6.9,6.9,0,0,0,2-.1l15.4-2.5a20.1,20.1,0,0,1,6.9-.4c2.2.3,4.3,1.3,6.4,1.2s4.3-.5,4.7,1.2-.9,2.2-1.4,3.4c-1.1,2.7,2,5.2,4.4,7a11.4,11.4,0,0,1,3.7,4.2,5.2,5.2,0,0,1-.4,5.4c-1.3,1.6-3.5,2-5.5,2.1a51.9,51.9,0,0,1-23.1-3.4l3.8,3.3c-8.1-.9-16.2-1.1-24.3-1.2l-6.7-.2c-4.4,0-8.8-.1-13.2.1l-12.7.9a153,153,0,0,1-17.9.6c-6.2-.2-12.3-1.1-18.5-1-8.9.2-17.9,2.2-26.7.6"/></g><polygon id="wood-slice" class="cls-1" points="125.6 28.6 124.6 29.6 120.9 29.2 120.8 26.3 125.6 28.6"/><polygon id="wood-slice-2" data-name="wood-slice" class="cls-1" points="3.8 21.5 4.8 20.5 7.1 20.5 6.1 22.5 3.8 21.5"/><polygon id="wood-slice-3" data-name="wood-slice" class="cls-1" points="1 27.4 0 28.4 1.7 28.8 3.1 27.5 1 27.4"/><polygon id="wood-slice-4" data-name="wood-slice" class="cls-1" points="33 6.3 34 5.3 34 7.6 33 6.3"/><path id="peduncle" class="cls-2" d="M152,10s-2,0-7,8l1.9,4.7C145,17,152,10,152,10Z"/><g id="platform-3" data-name="platform"><path class="cls-3" d="M5,29.6,0,28.4l5.7-2.8L3.8,21.5a3.2,3.2,0,0,0,3.1-4.4c-.8-1.6-2.6-2.3-3.4-3.8s-.1-3.9.8-5.7a4.4,4.4,0,0,1,1.5-2,3.8,3.8,0,0,1,1.8-.3c6.1-.4,12.2-.5,18.2-.3,2.4,0,5.5.7,5.8,3L33,6.3a13.6,13.6,0,0,1,2.4,3.8A6.9,6.9,0,0,1,40.1,5a16,16,0,0,1,7.2-.6A52,52,0,0,1,62.4,8a20.8,20.8,0,0,0,5.8,1.9,20.2,20.2,0,0,0,6.5-.5l9.2-2c7.5-1.5,15.6-3,22.5.2a5.2,5.2,0,0,0,1.3.6,6.9,6.9,0,0,0,2-.1l15.4-2.5a20.1,20.1,0,0,1,6.9-.4c2.2.3,4.3,1.3,6.4,1.2s4.3-.5,4.7,1.2-.9,2.2-1.4,3.4c-1.1,2.7,2,5.2,4.4,7a11.4,11.4,0,0,1,3.7,4.2,5.2,5.2,0,0,1-.4,5.4c-1.3,1.6-3.5,2-5.5,2.1a51.9,51.9,0,0,1-23.1-3.4l3.8,3.3c-8.1-.9-16.2-1.1-24.3-1.2l-6.7-.2c-4.4,0-8.8-.1-13.2.1l-12.7.9a153,153,0,0,1-17.9.6c-6.2-.2-12.3-1.1-18.5-1-8.9.2-17.9,2.2-26.7.6"/></g></g><g id="bush"><g id="bush-2" data-name="bush"><path class="cls-4" d="M108.3,7.4a1,1,0,0,1-1.1-.7l-1.8-.6a2.4,2.4,0,0,1-1.3-1.3c-.2-.7.4-1.5,1-1.3a1.8,1.8,0,0,1,2-2.1,2.2,2.2,0,0,1,1.8,2.5,1.6,1.6,0,0,1,1.5,1.4,3.5,3.5,0,0,1,2.8-.9,1.8,1.8,0,0,1,1.4,1.1,1.6,1.6,0,0,1,2.1.5,1.7,1.7,0,0,1-.3,2.1,1.4,1.4,0,0,1-2.1,0,2.1,2.1,0,0,1-1.1,2.1,1.9,1.9,0,0,1-2.2-.8,2.2,2.2,0,0,1-.9,1,1.4,1.4,0,0,1-1.4-.1c-.1-.2-.3-.5-.5-.5s-.4.4-.6.6a.8.8,0,0,1-1.1,0,.7.7,0,0,1,.2-1.1l.8-.2c.2-.1.4-.5.2-.7s-.5,0-.7-.2V7.9a.9.9,0,0,1,.7-.6"/></g><g id="bush-sw" class="cls-5"><path class="cls-6" d="M108.6,7.8a.9.9,0,0,0,0,1.2,1.1,1.1,0,0,0,1.3.2,1.2,1.2,0,0,0,.8-.9l.3.4c.2,0,.3.1.5,0a.2.2,0,0,0,.1-.3,1.5,1.5,0,0,0,1.3.7l.5-.3c.1-.2.3-.4.3-.6a.6.6,0,0,0-.3-.6l.8.3h.4a.5.5,0,0,0,.3-.7c0-.3-.3-.5-.5-.6l-.9-.3c0,.4-.1.7-.4.8s-.7,0-.7-.3-.4.5-.6.6a1,1,0,0,1-.9.1.6.6,0,0,1-.1-.8,1,1,0,0,1-1.2-.9V5.5a.6.6,0,0,0-.8-.3c-.3,0-.5.2-.7.5a.7.7,0,0,0-.1.6c0,.3.2.4.4.6l.6.2h.4a.5.5,0,0,0-.6.2.5.5,0,0,0-.3.5c.1.2.2.3.4.3h.5"/></g></g><g id="bush-3" data-name="bush"><g id="bush-4" data-name="bush"><path class="cls-4" d="M22.6,9.5a1.8,1.8,0,0,0-.5,2.8,1.8,1.8,0,0,0,2.8-.5,5.8,5.8,0,0,0,.3,3.2,2.7,2.7,0,0,0,1.4,1.4,1.1,1.1,0,0,0,1.5-.8,5.6,5.6,0,0,0,3.7,4.3,5.5,5.5,0,0,0,5.5-1,3.5,3.5,0,0,0,1.1-3.8,2.5,2.5,0,0,0,3,.6,2.5,2.5,0,0,0,1-3,3.2,3.2,0,0,0,3.9.5,4.2,4.2,0,0,0,1.9-3.6,3.1,3.1,0,0,0-1.3-2.7C49,1,43-1,40.1,1.8,39.3.7,37.7.5,36.3.5a3.4,3.4,0,0,0-2,.2c-.6.3-1.1,1-.8,1.6A3.6,3.6,0,0,0,30.3,0a3.3,3.3,0,0,0-3.1,2.2,3.4,3.4,0,0,0,1,3.7,7.7,7.7,0,0,0-1.9-3.1,2.7,2.7,0,0,0-3.4.1,4.5,4.5,0,0,0-3.6-1c-1.3,0-3,.6-3.4,1.9l-1.2-.9a3.8,3.8,0,0,0-2.6-1.1,1.9,1.9,0,0,0-1.5,2,1.9,1.9,0,0,0,1.9,1.6,3.6,3.6,0,0,0,.8,4.9,3.7,3.7,0,0,0,4.9-.8,1.8,1.8,0,0,0,.9,2.3,4.6,4.6,0,0,0,2.6.3"/></g><g id="bush-sw-2" data-name="bush-sw" class="cls-5"><path class="cls-7" d="M28.9,15a3.3,3.3,0,0,0,1.3,2.9,5.6,5.6,0,0,0,3,1.4,4.3,4.3,0,0,0,1.6.1,3.8,3.8,0,0,0,2.5-2.3c.5-1.2.9-2.6.3-3.7.3.8,1.3,1,2.1,1.1a2.2,2.2,0,0,0,1.8-.2,2,2,0,0,0,.8-1.3,2.9,2.9,0,0,0-.3-1.6,3,3,0,0,0,2.6-.7,2.6,2.6,0,0,0,.5-1.8,6.5,6.5,0,0,0-.6-2.6,3.3,3.3,0,0,1-2.3,1.4,2.1,2.1,0,0,1-2.1-1.5c-.6,1.1-1.3,2.4-2.5,2.9a3.2,3.2,0,0,1-2.7,0,2.8,2.8,0,0,1-1.4-1.6,2.6,2.6,0,0,1,.2-2.1c-.7.1-1.2.7-1.9.9a1.9,1.9,0,0,1-2.3-1.1,1.6,1.6,0,0,1-2.1,1.3c-.5-.2-.9-.7-1.3-.9a2.4,2.4,0,0,0-2-.2,4.5,4.5,0,0,0-1.7,1.1c-.2.1-.4.4-.3.6s.6.5.8.9a1.2,1.2,0,0,0-.6,1.7,2.9,2.9,0,0,0,1.5,1.4l1.8.5a2.9,2.9,0,0,0,1.6,0,2,2,0,0,0,1.3-.9,6.1,6.1,0,0,0-.7,1.7,2.1,2.1,0,0,0,.4,1.7,1.2,1.2,0,0,0,1.6.1"/></g><g id="bush-sw-3" data-name="bush-sw" class="cls-5"><path class="cls-6" d="M17.8,9.2a2.5,2.5,0,0,1-2,1H14.6a1.9,1.9,0,0,1-1.2-1,2.8,2.8,0,0,1-.3-2,2.6,2.6,0,0,1,1.2-1.7,2.2,2.2,0,0,0-.4,1.8A2.6,2.6,0,0,0,15,8.6l.6.3a2.8,2.8,0,0,0,2.2.1s.2.1.1.1"/></g><g id="bush-sw-4" data-name="bush-sw" class="cls-8"><path class="cls-6" d="M40.9,3c-.2-.3.1-1.1.8-1.6A1.9,1.9,0,0,1,43,1.1a2.1,2.1,0,0,1,1.2,1.8c-.2-.1-.7-1.9-2.4-.7s-.9.5-.9.8"/></g></g><g id="flower"><g id="petals"><path id="petal" class="cls-9" d="M153.5,3.2c0,.6-.7,5.7-1.7,5.7s-1.7-5.1-1.7-5.7.8-1.8,1.7-1.8S153.5,2.6,153.5,3.2Z"/><path id="petal-2" data-name="petal" class="cls-9" d="M147.2,4.9c.6.3,4.6,3.5,4.1,4.3s-5.2-1.1-5.8-1.4a1.9,1.9,0,0,1-.7-2.3A2,2,0,0,1,147.2,4.9Z"/><path id="petal-3" data-name="petal" class="cls-9" d="M145.5,11.2c.6-.4,5.3-2.2,5.8-1.4s-3.5,4-4.1,4.3a2,2,0,0,1-2.4-.6A1.9,1.9,0,0,1,145.5,11.2Z"/><path id="petal-4" data-name="petal" class="cls-9" d="M150.1,15.8c0-.6.8-5.7,1.7-5.7s1.7,5.1,1.7,5.7-.7,1.8-1.7,1.8S150.1,16.4,150.1,15.8Z"/><path id="petal-5" data-name="petal" class="cls-9" d="M156.4,14.1c-.5-.3-4.5-3.5-4-4.3s5.2,1.1,5.7,1.4a1.8,1.8,0,0,1,.7,2.3C158.4,14.4,156.9,14.4,156.4,14.1Z"/><path id="petal-6" data-name="petal" class="cls-9" d="M158.1,7.8c-.5.4-5.3,2.2-5.7,1.4s3.5-4,4-4.3,2-.3,2.4.6A1.8,1.8,0,0,1,158.1,7.8Z"/></g><g id="circle"><circle id="circle-2" data-name="circle" class="cls-10" cx="151.8" cy="9.5" r="1.8"/><path id="border" class="cls-11" d="M151.8,11.5a2,2,0,1,1,2-2A2,2,0,0,1,151.8,11.5Zm0-3.6a1.6,1.6,0,1,0,0,3.2,1.7,1.7,0,0,0,1.7-1.6A1.7,1.7,0,0,0,151.8,7.9Z"/></g></g></svg>