<svg id="platform" xmlns="http://www.w3.org/2000/svg" xmlns:xlink="http://www.w3.org/1999/xlink" width="157.3" height="30" viewBox="0 0 157.3 30"><defs><style>.cls-1{fill:#42210b;}.cls-2{fill:url(#Gradiente_sem_nome_16);}.cls-3{fill:#8ac83c;}.cls-4{opacity:0.7;}.cls-5{fill:#63ad44;opacity:0.8;}.cls-6{opacity:0.5;}</style><linearGradient id="Gradiente_sem_nome_16" x1="80" y1="4.05" x2="80" y2="30" gradientUnits="userSpaceOnUse"><stop offset="0.33" stop-color="#603813"/><stop offset="1" stop-color="#42210b"/></linearGradient></defs><g id="platform-2" data-name="platform"><g id="floor"><path class="cls-1" d="M20.1,28.6c-5.6.9-11.9.5-15.5-4.3a18.2,18.2,0,0,1-2.7-6.4c-.7-2.4-1-5.6,1-6.7s2-.3,3-.6c2.7-.7,3.7-4.5,5.9-6.3s7.3-.8,10.9.7c7.5,3.4,16.1,5.5,23.6,2.1C48.7,6,51,4.3,53.6,3.7s4.9-.2,7.4.2c4.9.7,16.6,1.5,20.8,6.1,3.1-4.6,12-4.6,19.1-4.3L131,6.9c6.4.3,12.9.5,19.3-.7,1.8-.3,3.9-.8,5.6.2s3,5.7,2.6,9.1-.7,4.7-1.2,7.1-.7,2.8-1.7,3.5a4.3,4.3,0,0,1-3.1.6c-12.2-.4-24.3-2-36.4-1.1-6.2.4-12.4,1.5-18.5,1.7-13.1.3-26.1-3.6-39.1-2.3-4.9.5-9.6,1.8-14.5,2.5-7.6,1.2-15.5,1.1-23.9,1.1" transform="translate(-1.4)"/></g><g id="platform-3" data-name="platform"><path class="cls-2" d="M20.1,29.6c-5.6.9-11.9.5-15.5-4.3a17.4,17.4,0,0,1-2.7-6.4c-.7-2.3-1-5.6,1-6.7s2-.3,3-.5c2.7-.8,3.7-4.5,5.9-6.4s7.3-.8,10.9.8c7.5,3.3,16.1,5.4,23.6,2C48.7,7,51,5.4,53.6,4.8a18.5,18.5,0,0,1,7.4.1c4.9.7,16.6,1.5,20.8,6.2,3.1-4.7,12-4.7,19.1-4.4L131,7.9c6.4.3,12.9.6,19.3-.6,1.8-.4,3.9-.8,5.6.2s3,5.7,2.6,9-.7,4.8-1.2,7.1a6.1,6.1,0,0,1-1.7,3.6,5.6,5.6,0,0,1-3.1.6c-12.2-.4-24.3-2-36.4-1.2-6.2.5-12.4,1.6-18.5,1.7-13.1.3-26.1-3.6-39.1-2.2-4.9.5-9.6,1.7-14.5,2.5-7.6,1.1-15.5,1-23.9,1" transform="translate(-1.4)"/></g></g><g id="bush"><path id="bush-2" data-name="bush" class="cls-3" d="M63.9,15.2a3.2,3.2,0,0,1-4.1.3,2.1,2.1,0,0,1,.4-3.4,1.7,1.7,0,0,1,.6-2.6c.3-.1.6-.2.6-.4s-.3-.5-.5-.7a1.3,1.3,0,0,1-.4-1.6,1.7,1.7,0,0,1,1.8-.6,2.8,2.8,0,0,1-.5-1.7A1.2,1.2,0,0,1,63,3.3a1.9,1.9,0,0,1,1.4.5A1.1,1.1,0,0,1,66,3.5a3.3,3.3,0,0,1,2.6-.8A1.6,1.6,0,0,1,70,1.1c1.8-1.1,4.5.9,4.1,1.1S74.4,0,75.7,0,78.1,1.2,78,1.4a15,15,0,0,1,3.5-.3c1.9,0,2.2.9,2.2,1.9s2.2-.6,3.3-.8,2.4.3,2.6,1.2c-.4-1.1,1-2.4,2.5-2.4a4.7,4.7,0,0,1,3.7,1.7,2.5,2.5,0,0,1,.6,1.4,1.1,1.1,0,0,1-.6,1.2,1.7,1.7,0,0,1,.8,1.9,1,1,0,0,1,.7.4l.3.8a2.4,2.4,0,0,1,.2.9,1.1,1.1,0,0,1-.9.9,3.9,3.9,0,0,1-1.5.2c.4.5.9.9,1,1.5a1.1,1.1,0,0,1-.9,1.4h-.9a4.2,4.2,0,0,0-1.6.4,4.7,4.7,0,0,1-1.6.4c-.6-.1-1.1-.5-1-.9s-3.2-.5-2.9-.7a1.9,1.9,0,0,1,.6,2.2c-.1.2-.3.5-.2.7a.9.9,0,0,0,.3.5c.1.5-.6.8-1.1.8a5.3,5.3,0,0,1-2.8.1,1,1,0,0,1-.8-.6c-.2-.5.3-1,.8-1.4A6.4,6.4,0,0,1,81,16.6H80c-.5-.3-.6-.8-.2-1.1s.5-.2.8-.3.5-.4.3-.6a1.1,1.1,0,0,1-1.5-.4,3.8,3.8,0,0,1-4,0,1.2,1.2,0,0,1-1.1,1.1c.4.6.8,1.3.4,1.9a1.6,1.6,0,0,1-.9.5,4.2,4.2,0,0,1-3.3-.1,1.5,1.5,0,0,1-.5-2.5,1.1,1.1,0,0,1-.9,1l-.9-.2a1.9,1.9,0,0,1-1-.5c-.2-.3-.3-.7-.1-.9a4.3,4.3,0,0,0-1.9.4c-.6.1-1.5-.3-1.3-.8Z" transform="translate(-1.4)"/><g id="bush-sw" class="cls-4"><path class="cls-5" d="M64.8,10.8a2.4,2.4,0,0,0,1.7,1.5,2.5,2.5,0,0,0,2.2-.5A2.3,2.3,0,0,0,70.9,14a2.1,2.1,0,0,1-.4-1.1,1,1,0,0,1,.3-1,.7.7,0,0,1,1,0c.2.3.1.8.3,1.1a.9.9,0,0,0,1.1.1,3.6,3.6,0,0,0,.7-1c.2-.2.3-.5.5-.6a.6.6,0,0,1,.8-.1c.5.3.3,1.3.9,1.3s.7-.6,1.1-.6.5.3.7.5a1.6,1.6,0,0,0,.9.7,1.1,1.1,0,0,0,1.1-.2c.2-.2.2-.5.4-.8a.7.7,0,0,1,.6-.4h.4c.4,0,.5-.6.9-.7s.6.2.7.6.3.7.6.8a.7.7,0,0,0,.8-.5c.2-.3.2-.7.4-.9l1.9.2H87c.1-.1.1-.3,0-.3s.6-.5.5-.9a1.7,1.7,0,0,0-1-.6,2.3,2.3,0,0,0,1.5-1,1.3,1.3,0,0,1-1.6-.9,1.4,1.4,0,0,1-1.1,1A1.4,1.4,0,0,1,84,8.1c.3.2.1.6-.2.8a2.4,2.4,0,0,1-1.3.7,1.5,1.5,0,0,1-1.4-.5,1.9,1.9,0,0,1-1.5.9h-.2V9.8a1.9,1.9,0,0,1-.3-1c.1-.3.2-.7.5-.8l.4-.2c.4-.3.1-1-.3-1.1a2,2,0,0,0-1.5.2c-.2-.2-.1-.6-.3-.8a.6.6,0,0,0-.9-.1c-.3.1-.6.4-1,.4s-1-.2-1.3.2,0,.4.1.6l.6.2c.2.1.5.1.5.3s.1.1,0,.2-.6.6-1,.7-1,.4-1,.9l-.6-.3a1.2,1.2,0,0,1-1,.7,1.1,1.1,0,0,1-1.1-.4L70.8,9h-.5a1,1,0,0,1-1-.3c-.3-.3-.1-.9.3-.8a1.5,1.5,0,0,1-.8-1.1,1.6,1.6,0,0,1-1.2.1l-.8-.2a.6.6,0,0,0-.7.1.4.4,0,0,0,0,.7h-.5a3.1,3.1,0,0,1,.5,1v.2c-.1.2-.4.1-.7.1s-1.3.6-2,.5L63,9.2c-.2,0-.4.2-.6.3a1.3,1.3,0,0,0,.7,1.8,1.7,1.7,0,0,0,2-.6" transform="translate(-1.4)"/></g><g id="bush-sw-2" data-name="bush-sw" class="cls-6"><path class="cls-5" d="M90.5,5.7a1.2,1.2,0,0,1,1.1-1.2h.3c.3.1.4.3.6.5l.3.6a.5.5,0,0,1-.4.6.5.5,0,0,1,.5.5v.2l-.3.2c-.2,0-.5.1-.6-.2a2.2,2.2,0,0,1-1.3.6,1.1,1.1,0,0,1-1.1-.7l-.2-.4h-.9a1.6,1.6,0,0,0,.8-1l.2-.3c0-.1.1-.2.2-.1h.2l.7.5" transform="translate(-1.4)"/></g></g></svg>