<svg id="sunset" xmlns="http://www.w3.org/2000/svg" xmlns:xlink="http://www.w3.org/1999/xlink" width="1920" height="1080" viewBox="0 0 1920 1080">
<defs>
    <style>
        .cls-1{fill:url(#Gradiente_63);}
        .cls-2{fill:url(#Gradiente_422);}
        .cls-3{opacity:0.7;fill:url(#Gradiente_141);}
        .cls-12,.cls-4{opacity:0.8;}
        .cls-4{fill:url(#Gradiente_498);}
        .cls-5{fill:#fde8e6;}
        .cls-6{fill:#55443d;}
        .cls-7{opacity:0.63;fill:url(#Gradiente_402);}
        .cls-8{fill:#382f32;}
        .cls-9{opacity:0.1;fill:url(#Gradiente_420);}
        .cls-10{fill:#222;}
        .cls-11{opacity:0.3;}
        .cls-13{fill:#d28e51;}
        .cls-14{fill:#7b5145;}
        .cls-15{opacity:0.2;}
        .cls-16{fill:url(#Gradiente_467);}
        .cls-17{fill:url(#Gradiente_450);}
        .cls-18{fill:url(#Gradiente_511);}
        .cls-19{fill:url(#Gradiente_536);}
    </style>
    <linearGradient id="Gradiente_63" x1="960" x2="960" y2="1080" gradientUnits="userSpaceOnUse">
        <stop offset="0" stop-color="#f1bb7b"/>
        <stop offset="0.11" stop-color="#eeb276"/>
        <stop offset="0.29" stop-color="#e89868"/>
        <stop offset="0.37" stop-color="#e48b61"/>
    </linearGradient>
    <linearGradient id="Gradiente_422" x1="960" x2="960" y2="1081" gradientUnits="userSpaceOnUse">
        <stop offset="0" stop-color="#fff" stop-opacity="0"/>
        <stop offset="0.53" stop-color="#dd5e55"/>
        <stop offset="0.68" stop-color="#c16059"/>
    </linearGradient>
    <radialGradient id="Gradiente_141" cx="963.63" cy="552.5" r="363.5" gradientUnits="userSpaceOnUse">
        <stop offset="0.14" stop-color="#fff" stop-opacity="0.5"/>
        <stop offset="0.16" stop-color="#fefdf3" stop-opacity="0.54"/>
        <stop offset="0.2" stop-color="#fbf8d4" stop-opacity="0.65"/>
        <stop offset="0.25" stop-color="#f6efa1" stop-opacity="0.83"/>
        <stop offset="0.29" stop-color="#f2e771"/>
        <stop offset="0.5" stop-color="#efc756"/>
        <stop offset="0.99" stop-color="#efc756" stop-opacity="0"/>
    </radialGradient>
    <radialGradient id="Gradiente_498" cx="960" cy="781.36" r="710.91" gradientUnits="userSpaceOnUse">
        <stop offset="0.78" stop-color="#c16059"/>
        <stop offset="1" stop-color="#c16059" stop-opacity="0.6"/>
    </radialGradient>
    <linearGradient id="Gradiente_402" x1="960.52" y1="651.94" x2="960.52" y2="961.1" gradientUnits="userSpaceOnUse">
        <stop offset="0" stop-color="#55443d" stop-opacity="0"/>
        <stop offset="0.49" stop-color="#4a3831"/>
    </linearGradient>
    <linearGradient id="Gradiente_420" x1="959.75" y1="854.5" x2="959.75" y2="1046" gradientUnits="userSpaceOnUse">
        <stop offset="0.12" stop-color="#222" stop-opacity="0"/>
        <stop offset="1"/>
    </linearGradient>
    <linearGradient id="Gradiente_467" x1="1321.23" y1="79.41" x2="1321.23" y2="345.79" gradientUnits="userSpaceOnUse">
        <stop offset="0" stop-color="#d28e51"/>
        <stop offset="0.54" stop-color="#d28e51"/>
        <stop offset="1" stop-color="#d28e51" stop-opacity="0.1"/>
    </linearGradient>
    <linearGradient id="Gradiente_450" x1="1332.23" y1="79.41" x2="1332.23" y2="345.79" gradientUnits="userSpaceOnUse">
        <stop offset="0" stop-color="#7b5145"/>
        <stop offset="0" stop-color="#7b5145" stop-opacity="0.96"/>
        <stop offset="0.54" stop-color="#7b5145"/>
        <stop offset="1" stop-color="#7b5145" stop-opacity="0.5"/>
    </linearGradient>
    <linearGradient id="Gradiente_511" x1="298.38" y1="130.88" x2="298.38" y2="339" gradientUnits="userSpaceOnUse">
        <stop offset="0" stop-color="#d28e51"/>
        <stop offset="0.68" stop-color="#d28e51"/>
        <stop offset="1" stop-color="#d28e51" stop-opacity="0.2"/>
    </linearGradient>
    <linearGradient id="Gradiente_536" x1="290.38" y1="122.88" x2="290.38" y2="331" gradientUnits="userSpaceOnUse">
        <stop offset="0" stop-color="#7b5145"/>
        <stop offset="0.7" stop-color="#7b5145" stop-opacity="0.8"/>
        <stop offset="1" stop-color="#7b5145" stop-opacity="0.3"/>
    </linearGradient>
</defs>
<g id="sunset_vector">
    <rect id="sky-gradient" class="cls-1" width="1920" height="1080"/>
    <rect id="sky-gradient-2" data-name="sky-gradient" class="cls-2" width="1920" height="1081"/>
    <circle id="sun-light" class="cls-3" cx="963.6" cy="552.5" r="363.5"/>
    <path id="montain" class="cls-4" d="M1919.5,567.5l.5,512.5H0V482.7l9.5.8c51.5,5.5,83,30.4,110,45,41.4,22.4,80.6,25,111,27,56.9,3.8,124.2-7.2,143-22,2-1.6,9.1-7.6,19-8s17.1,4.7,19,6c25.7,16.9,117,24.3,126,25,34.2,2.7,76.8,6,126-6a750.6,750.6,0,0,1,85-15c13.6-1.6,22.2-2.2,33-1,20.6,2.2,29,8.7,58,19a427,427,0,0,0,48,14,409.6,409.6,0,0,0,62,9c26.4,1.9,41.6,3,63,0,26.2-3.7,60.4-13.5,70-23a33.2,33.2,0,0,1,13-8,18.6,18.6,0,0,1,8-1,18.3,18.3,0,0,1,9,4c5.4,4.2,17.1,7.9,40,15s61.4,7.7,97,2c24.8-4,53.3-11.9,81-12,9.9,0,19.7.7,19.7.7a263.8,263.8,0,0,1,35.3,5.3c30.7,6.7,145.6,16,239-6,17.5-4.1,31.6-8.7,36.9-10.5,41.7-14,38.9-20.3,68.1-30.5,0,0,21-7.3,21-14h0c0-3.5,5.7-7,10-7s7.2,3.2,8,4c20.6,20.7,47.4,34,71,51,15.1,10.9,39.5,21.9,80,21"/>
    <circle id="sun" class="cls-5" cx="963.6" cy="552.5" r="90.5"/>
    <path id="montain-2" data-name="montain" class="cls-6" d="M1921.5,1082.5H-2V1081l1-480.2,1.6.2c92.6,8.9,173.9,8.9,241.7,0,24.8-3.2,50.2-5.2,74.7-7.1s49-3.7,73.3-6.9h.7c12-1.5,34.4-4.4,63.6-1.9,26.4,2.3,44.3,7.7,60,12.5l12.3,3.6c23,6.2,34.6,5.3,57.7,3.3,16.5-1.3,39.1-3.2,75.9-3.4,28.1-.1,51,.8,71.3,1.6,32.6,1.3,58.3,2.3,88.5-1.6,35.7-4.6,53.6-6.9,71.4-17.8l1.5-.9c4.6-2.8,10.9-6.7,20.1-8.3,13.8-2.3,24.5,2.2,39.3,8.4l6.5,2.7c7.7,3.2,15.9,5.8,23.8,8.3s14.9,4.8,22.2,7.7c55.3,21.9,183,17.6,263.1-.1,58.9-12.9,91.3-20.1,96.6-22.8l.4-.2c4-2.1,14.6-7.6,28.4-7s25.3,7.8,30.9,11.7l.8.6c21.5,14.5,43.2,19.3,86.5,28.7,18.9,4.2,38.9,4.5,78.7,5,25.2.3,63.2.9,111.8-5,21.2-2.5,30.3-4.6,38.4-6.4s14.9-3.3,31.7-4.6c19.5-1.5,32.8-1.2,56.8-.7l48.3.7c17.4.1,34.9.1,52,0h1.5v1.5Z"/>
    <path id="sw" class="cls-7" d="M1922.3,961.1H-1.2V675l2,.7a371.5,371.5,0,0,0,90.6,20.9c18.4,1.9,61.5,6.3,114.5-6,24.3-5.6,37.4-11.6,50.1-17.4s27-12.4,53-16.6c23.1-3.7,51.8-8.3,85.6,0,24.7,6.2,37.3,15.3,50.5,25s27.3,20.1,55.5,27c32.9,8.2,63.8,6.7,72.6,6a145.3,145.3,0,0,0,26.6-4.2,175.7,175.7,0,0,1,30.3-4.8c32-2.6,58.7.8,76.4,3a264.4,264.4,0,0,1,31.9,5.8,98.5,98.5,0,0,0,22.9,3.2c12.1.4,18.5-.6,49.1-5.4l22.6-3.6c33.5-5.2,50.3-7.8,61.1-9,12.8-1.4,42.8-4.6,76.2-3,45.3,2.2,79.3,12.2,109.4,21.1,13.8,4,24.3,7.7,33.6,10.8,18.1,6.3,31.3,10.8,54.1,13.1a262.7,262.7,0,0,0,51.7,0c19.1-2,29.1-5.2,58.8-14.9l27.9-9c68-21.7,82.6-24,100.7-21.1a66.1,66.1,0,0,1,18.7,5.7c5.5,2.5,12.3,5.5,27.4,9.3,12.7,3.3,42.2,10.8,78.6,9a234.2,234.2,0,0,0,78.5-17.9,591.2,591.2,0,0,0,76.4-38.8c6.3-3.8,7.3-4.3,8.2-4.3s1.7.5,5.4,3.1c8.9,6.3,30,21,58.9,27.9a130.8,130.8,0,0,0,42.5,3c15.6-1.4,25-5.2,35-9.2,7.9-3.1,16-6.4,27.9-8.8,17.8-3.6,36.8-3.6,56.5,0l1.3.2v1.3ZM1694.5,662.6Z"/>
    <path id="montain-3" data-name="montain" class="cls-8" d="M1921.5,1082.5H-2V796.4l2,.7A371.2,371.2,0,0,0,90.7,818c18.3,1.9,61.4,6.3,114.5-6,24.2-5.6,37.3-11.6,50-17.4s27-12.4,53.1-16.6c23-3.7,51.7-8.3,85.6,0,24.7,6.2,37.2,15.3,50.4,25s27.4,20.1,55.6,27c32.8,8.2,63.8,6.7,72.5,6a146.6,146.6,0,0,0,26.7-4.2,172.3,172.3,0,0,1,30.3-4.8c32-2.6,58.6.8,76.3,3a260.4,260.4,0,0,1,31.9,5.8,99.5,99.5,0,0,0,23,3.2c12,.4,18.4-.6,49-5.4l22.7-3.6c33.4-5.2,50.2-7.8,61-9,12.8-1.4,42.8-4.6,76.3-3,45.2,2.2,79.3,12.2,109.3,21.1,13.9,4,24.4,7.7,33.6,10.8,18.2,6.3,31.3,10.8,54.2,13.1a261.7,261.7,0,0,0,51.6,0c19.1-2,29.1-5.2,58.9-14.9l27.8-9c68.1-21.7,82.6-24,100.7-21.1a66.1,66.1,0,0,1,18.7,5.7c5.5,2.5,12.3,5.5,27.5,9.3,12.6,3.3,42.1,10.8,78.5,9a233.7,233.7,0,0,0,78.5-17.9,584.2,584.2,0,0,0,76.4-38.8c6.3-3.8,7.3-4.3,8.2-4.3s1.7.5,5.4,3.1c9,6.3,30,21,58.9,27.9a131.2,131.2,0,0,0,42.6,3c15.6-1.4,25-5.2,34.9-9.2,7.9-3.1,16.1-6.4,27.9-8.8,17.8-3.6,36.9-3.6,56.6,0l1.2.2v1.3ZM1693.7,784Z"/>
    <path id="sw-2" data-name="sw" class="cls-9" d="M1920.5,854.5c-62.6,36.6-114.2,47.6-143.5,51.5-34.7,4.6-74.1,4.2-83.1,4-43.7-.8-43.8-4.4-67-4-40.1.6-52.6,16-93.2,22.9-21.2,3.6-30.8.5-46.2,1.6-18.4,1.3-117.1-29.3-134.6-37.5-21.9-10.3-56.3-10.3-114.1,3-45.4,10.4-41.7,14.5-86,24-36.6,7.9-60.5,12.8-91,9-33.3-4.1-37.2-14-68-21-55.9-12.7-105.5,5.6-128.1,14-45.7,16.9-105.2,53.3-121,63-7.9,4.9-22.7,14.1-44,17s-38.4-2-59-9c-75.9-25.8-75.9-38.1-111.1-43-32.3-4.5-32.6,5.9-81,2-32.7-2.7-50.3-4.1-72-14-31.3-14.3-43.2-33.4-83-44a168.6,168.6,0,0,0-20-4C218.1,881.6-1,855.5-1,855.5L-.5,1046H1920Z"/>
    <path id="montain-4" data-name="montain" class="cls-10" d="M1920.5,889.5c-62.6,36.6-114.2,47.6-143.5,51.5-34.7,4.6-74.1,4.2-83.1,4-43.7-.8-43.8-4.4-67-4-40.1.6-52.6,16-93.2,22.9-21.2,3.6-30.8.5-46.2,1.6-18.4,1.3-117.1-29.3-134.6-37.5-21.9-10.3-56.3-10.3-114.1,3-45.4,10.4-41.7,14.5-86,24-36.6,7.9-60.5,12.8-91,9-33.3-4.1-37.2-14-68-21-55.9-12.7-105.5,5.6-128.1,14-45.7,16.9-105.2,53.3-121,63-7.9,4.9-22.7,14.1-44,17s-38.4-2-59-9c-75.9-25.8-75.9-38.1-111.1-43-32.3-4.5-32.6,5.9-81,2-32.7-2.7-50.3-4.1-72-14-31.3-14.3-43.2-33.4-83-44a168.6,168.6,0,0,0-20-4C218.1,916.6-1,890.5-1,890.5L-.5,1081H1920Z"/>
    <g id="cloud" class="cls-11">
        <g id="cloud-sw" class="cls-12">
            <path class="cls-13" d="M1625.7,489.3c-1.6-7.5-20.4,0-28.2-6.9-1.8-1.6-3.6-3.6-5.9-4s-4.1.4-6-.1c-4-1-5.3-6.3-8.8-8.3-5.5-3-11.5,3.3-17.7,4.1-9.4,1.3-16.3-10.1-25.7-10.9s-18.5,11.6-29.1,12.7c-3.4.3-6.8-.6-10.2-.3s-7.1,2.5-7.5,6c-.1,1.3.2,2.8-.4,4-1.9,3.6-7.6-.9-11.1,1s-1.7,6.3,1,7.8,6.1.9,9.1.3c7.5-1.4,15.1-2.5,22.6-3.2,3.8-.4-6.8,16.8-20.3,13.5-1.6-.4-3.2,1.1-4.9.9s-4.7-2-7.2-2.7-6.2-.1-9.3-.5c-7.2-1.1-12.1-9.9-9.3-16.8-10.5-5.3-9.6,11.9-6.7,18.5.5,1.2,1.2,2.5.8,3.8s-2.3,2.2-2.8,3.6.7,3.6,2.2,4.7c10.7,7.9,26.4,1.2,38.8,6.1,2.4,1,4.7,2.4,7.3,2.3s5.5-2.1,7.8-4l7.4-6.1c15.6-6.1,42.5,9.9,58.5.5a15.5,15.5,0,0,0,4.8,0,23.8,23.8,0,0,0,5.1-1.8c7.9-3.4,17.3-4.7,24.8-.6a22.6,22.6,0,0,0,4.9,2.5c6.5,1.9,13.5-5.2,19.9-2.9,1.8.7,3.3,2,5.1,2.9,6,3,13.6-.5,17.6-6.2s13.9-13.7,6.2-19.5S1627.4,496.8,1625.7,489.3Z"/>
        </g>
        <g id="cloud-2" data-name="cloud" class="cls-11">
            <path class="cls-14" d="M1630.7,492.4c-1.6-7.5-20.3,0-28.1-6.9-1.9-1.6-3.6-3.6-6-4s-4,.4-6-.1c-3.9-1-5.2-6.3-8.8-8.3-5.5-3-11.5,3.3-17.7,4.1-9.4,1.3-16.3-10-25.7-10.8S1520,478,1509.3,479c-3.4.3-6.8-.5-10.2-.2s-7.1,2.4-7.5,5.9c-.1,1.4.3,2.9-.4,4.1-1.9,3.5-7.6-1-11.1.9s-1.7,6.3,1,7.8,6.1.9,9.2.4a215.9,215.9,0,0,1,22.6-3.3c3.7-.3-6.9,16.8-20.4,13.5-1.6-.3-3.2,1.1-4.8,1s-4.8-2-7.3-2.8-6.2,0-9.3-.5c-7.2-1.1-12-9.9-9.3-16.8-10.4-5.2-9.6,11.9-6.7,18.5.5,1.3,1.2,2.6.8,3.8s-2.2,2.2-2.8,3.7.7,3.5,2.2,4.6c10.8,8,26.4,1.3,38.8,6.2,2.4.9,4.7,2.3,7.3,2.3s5.5-2.1,7.8-4l7.4-6.2c15.6-6,42.5,9.9,58.5.6a20.1,20.1,0,0,0,4.9-.1,23,23,0,0,0,5-1.8c7.9-3.4,17.3-4.7,24.8-.6a28.4,28.4,0,0,0,4.9,2.5c6.6,1.9,13.5-5.2,19.9-2.9,1.9.7,3.4,2,5.1,2.9,6.1,3,13.7-.5,17.6-6.1s14-13.8,6.3-19.6S1632.4,500,1630.7,492.4Z"/>
        </g>
    </g>
    <g id="cloud-3" data-name="cloud" class="cls-15">
        <g id="cloud-sw-2" data-name="cloud-sw">
            <path class="cls-13" d="M783.9,488.3c-5.3,2.2-10.3-3.2-15.4-5.9-13.1-6.9-30.2,5.1-43.5-1.4-2.9-1.4-5.3-3.6-8.4-4.4-5.4-1.5-10.9,1.6-16.1,3.8a55.9,55.9,0,0,1-22,4.5,19.6,19.6,0,0,1-8.3-1.4c-2.2-1.1-4-2.8-6.1-4a17.7,17.7,0,0,0-17.4-.4c-4.3,2.4-7.9,6.6-12.8,6.9-3.4.1-6.6-1.8-9.2-3.9-9.3-7.5-15.9-19.4-27.5-22.2s-23.8,5.2-35.5,2.7c-4.2-.8-8-3-12.1-4.3-5.8-1.9-12.6-2-17.6,1.6s-7.1,11.3-3.2,16c1.9,2.4,5.2,4,5.9,7s-1.6,6.2-4.2,7.9-5.9,2.9-8.1,5.2c-3.9,4.2-3.6,11.3-.1,15.9s9.2,7,14.9,7.7a34.1,34.1,0,0,0,24.3-6.4,10.4,10.4,0,0,1,4.2-2.4c4.3-.8,7.1,4.2,9.4,8a31.2,31.2,0,0,0,25.3,14.7,30.8,30.8,0,0,0,25.9-13.6c3.9-5.8,6.9-13.8,13.8-14.7,5.3-.7,12.1,2.9,15-1.5,1.6-2.4,1.2-6.5,3.9-7.3s3.7,1.3,5.2,2.8a15.6,15.6,0,0,0,16.9,2.5c2.8-1.4,5.2-3.6,8-5.1,7.9-4,17.5-1,26.1,1.4a18.1,18.1,0,0,0,5.1.8c2.5,0,4.8-1,7.1-2l22.3-9.5c1.8-.8,3.8-1.6,5.6-1s2.9,2.2,4.2,3.4c3.5,2.9,8.5,2.9,13.1,2.7l20.7-.7a7,7,0,0,0,3.2-.6c2.2-1.3,2.2-4.7,4-6.4s6.9-.5,10.2.9,8.7,1,8.7-2.6c-9.1-5.5-22.1-3.7-29.3,4.2l-2.4-5-4.6,6"/>
        </g>
        <g id="cloud-4" data-name="cloud" class="cls-12">
            <path class="cls-14" d="M779.4,491.9c-5.3,2.1-10.3-3.3-15.4-5.9-13.1-6.9-30.3,5.1-43.6-1.5-2.8-1.4-5.3-3.5-8.3-4.4-5.4-1.5-11,1.6-16.2,3.8a53.4,53.4,0,0,1-21.9,4.5,19.6,19.6,0,0,1-8.3-1.4c-2.2-1-4-2.7-6.2-4a17.5,17.5,0,0,0-17.3-.3c-4.3,2.3-7.9,6.5-12.8,6.8-3.4.2-6.6-1.7-9.2-3.9-9.3-7.5-15.9-19.4-27.5-22.1s-23.8,5.1-35.5,2.7c-4.2-.9-8-3-12.1-4.4-5.8-1.9-12.6-1.9-17.6,1.6s-7.1,11.3-3.3,16.1c2,2.4,5.3,3.9,6,6.9s-1.6,6.2-4.2,8-5.9,2.9-8.1,5.2c-3.9,4.1-3.6,11.2-.1,15.8s9.1,7,14.8,7.7a33.7,33.7,0,0,0,24.4-6.4,10.2,10.2,0,0,1,4.2-2.3c4.3-.9,7.1,4.2,9.4,7.9a30.2,30.2,0,0,0,51.2,1.1c3.9-5.8,6.9-13.8,13.8-14.7,5.3-.6,12.1,2.9,15-1.5,1.6-2.4,1.1-6.5,3.9-7.3s3.7,1.4,5.2,2.8a15.4,15.4,0,0,0,16.9,2.5c2.8-1.3,5.2-3.6,8-5,7.9-4.1,17.5-1.1,26.1,1.3a17.6,17.6,0,0,0,5.1.9,22.2,22.2,0,0,0,7.1-2l22.3-9.6c1.8-.7,3.8-1.5,5.6-.9s2.9,2.2,4.2,3.3c3.5,3,8.5,2.9,13.1,2.8l20.7-.7a7.1,7.1,0,0,0,3.2-.7c2.2-1.3,2.2-4.6,4-6.4s6.9-.5,10.2,1,8.7,1,8.7-2.7c-9.1-5.5-22.1-3.6-29.3,4.3l-2.4-5.1-4.6,6.1"/>
        </g>
    </g>
    <g id="cloud-5" data-name="cloud">
        <g id="cloud-sw-3" data-name="cloud-sw" class="cls-12">
            <path class="cls-16" d="M1031.4,310.4a96.7,96.7,0,0,0,57.7-24.6c11.8-10.7,25.5-25.7,40.4-20.1,5.6,2.1,10,7,15.8,8.2,14.7,3.1,25.2-17.7,40.2-17,3.1.1,6.2,1.2,9.3.9,13.7-1.1,18.8-26.3,32-22.3,2.1.7,3.9,2.1,5.9,3.1,10.7,5.1,22.7-3.2,31-11.6s18.1-18.3,29.8-16.4c6.9,1.1,14,6.4,20.4,3.2,4.4-2.2,6.1-7.4,8.6-11.7,8.6-14.5,32.5-16.3,43.2-3.2a52.9,52.9,0,0,1,58-65.8,15.7,15.7,0,0,1,30.2-3.9c69.6-86.7,172.6-45.7,179.9,13.5,4.4,23.6-8.1,50.5-30.6,58.7,40.3,80.1,11.3,97.1-174.2,106.3,22.5,26.8-9.5,24.3-14.5,26.8-8.7,4.3-9.1,8-10.4,8.5-6.7,2.8-14.2,2.8-21.4,2.8H1250.9a83.2,83.2,0,0,1,33.6-16.8c-57.1,8.2-115.3,10.2-172.4,2.1-34.8-4.9-69.2-13.5-104.3-13.5l23.9-6.5Z"/>
        </g>
        <g id="cloud-6" data-name="cloud">
            <path class="cls-17" d="M1644.8,142.7c-7.3-59.2-110.3-100.2-179.9-13.5a15.7,15.7,0,0,0-30.2,3.9,52.9,52.9,0,0,0-58,65.8c-10.7-13.1-34.6-11.3-43.2,3.2-2.5,4.3-4.2,9.5-8.6,11.7-6.4,3.2-13.5-2.1-20.4-3.2-11.7-1.9-21.5,8-29.8,16.4s-20.3,16.7-31,11.6c-2-1-3.8-2.4-5.9-3.1-13.2-4-18.3,21.2-32,22.3-3.1.3-6.2-.8-9.3-.9-15-.7-25.5,20.1-40.2,17-5.8-1.2-10.2-6.1-15.8-8.2-14.9-5.6-28.6,9.4-40.4,20.1a96.7,96.7,0,0,1-57.7,24.6l.3.7-23.9,6.5c35.1,0,69.5,8.6,104.3,13.5,57.1,8.1,115.3,6.1,172.4-2.1a83.2,83.2,0,0,0-33.6,16.8h131.8c7.2,0,14.7,0,21.4-2.8,1.3-.5,1.7-4.2,10.4-8.5,5-2.5,37,0,14.5-26.8,185.5-9.2,214.5-26.2,174.2-106.3C1636.7,193.2,1649.2,166.3,1644.8,142.7Zm-251.1,74c0,.1-.1.2-.2.3a14.8,14.8,0,0,0-8.3,9.2c-1.7,4.5-2.8,11.1-.9,15.6a.5.5,0,0,1-.2.6.6.6,0,0,1-.7-.2c-7.4-8.2-18.4-10.2-33.8-.5a37.1,37.1,0,0,1,8-5.6,18.1,18.1,0,0,1,4.6-1.7,20.1,20.1,0,0,1,4.9-.8,21.7,21.7,0,0,1,9.7,1.7,18.5,18.5,0,0,1,5.6,4c-4.3-14.5,3.6-21.2,9.2-22.5,0,0-11.1-2.3-12.2-12.6a14.7,14.7,0,0,0,5.6,7.6,33.4,33.4,0,0,0,4,2.5,23.5,23.5,0,0,0,4.4,1.7A.5.5,0,0,1,1393.7,216.7Zm133.8-70.2c-9-5-31.5-2.5-31.5-2.5,25.5-6.5,40.5-10.5,47,26C1543,170,1536.5,151.5,1527.5,146.5Z"/>
        </g>
    </g>
    <g id="cloud-7" data-name="cloud">
        <g id="cloud-sw-4" data-name="cloud-sw">
            <path class="cls-18" d="M559.7,309.2c-2.5,3.8-8,4.4-12.4,3.3-10.3-2.4-18.2-10.8-23.4-20s-8-19.5-12.3-29.2c-2.7-5.9-6.1-11.9-11.7-15.1s-13.9-2.8-17.5,2.6c-4.9-20.8-24.6-37.1-46-38.1-7.2-.4-14.8,1-20.8,5.1S405.4,229,406,236.3c-6.7-11.9-21.8-15.7-35.3-17.4-6.7-.9-13.7-1.5-20.3.2s-11.3,5.4-13.8,10.8c6.8-18.9,7.6-40.3-.3-58.7s-26.7-34.3-47.4-35.9c-11-.9-24.3,4-26,14.9-8-4.1-17.8-3.1-25.5,1.2h-.1c-15.1-16.7-43.2-24.9-64.7-18.4s-40.9,26.5-50.8,42.5c-2.5,3.9-1.8,3.2-5.2,6.7-6.8,6.7-16.1.7-23,4.7a29.4,29.4,0,0,0-9.4,9.5,3.2,3.2,0,0,1-2.8,1.4c-42.8-.1-53,50.1-38,69.8a79.5,79.5,0,0,0,15,13.4c-8.9,6.3-9.6,20.5-3,29.3s18.5,12.1,29.3,10.9c5.6-.6,11.1-2.2,16.6-1.2s9.6,4.3,14.3,6.9a58.7,58.7,0,0,0,48.1,3.8c2.7-1,5.4-2.2,8.2-1.8s3.9,1.5,5.8,2.5c14.3,8,31.7,8.6,47.9,6.3s32-7.2,48.2-9.6c42.4-6.3,85.5,4.9,128.4,5.1,8.4.1,17.1-.4,24.9-3.7a29.2,29.2,0,0,0,10.2-7.2l.2-.2h0c20.1,4.5,42.3,8.8,60.5-.9,3.4-1.8,6.7-4.2,10.4-5.2,6.5-1.9,13.5.3,19.8,2.6s12.9,5,19.6,4.1S561,315.8,559.7,309.2Z"/>
        </g>
        <g id="cloud-8" data-name="cloud">
            <path class="cls-19" d="M551.7,301.2c-2.5,3.8-8,4.4-12.4,3.3-10.3-2.4-18.2-10.8-23.4-20s-8-19.5-12.3-29.2c-2.7-5.9-6.1-11.9-11.7-15.1s-13.9-2.8-17.5,2.6c-4.9-20.8-24.6-37.1-46-38.1-7.2-.4-14.8,1-20.8,5.1S397.4,221,398,228.3c-6.7-11.9-21.8-15.7-35.3-17.4-6.7-.9-13.7-1.5-20.3.2s-11.3,5.4-13.8,10.8c6.8-18.9,7.6-40.3-.3-58.7s-26.7-34.3-47.4-35.9c-11-.9-24.3,4-26,14.9-8-4.1-17.6-3.1-25.4,1.2a20.9,20.9,0,0,1,8.4,2.2c7,3.5,7,7,7,7s-3.5-7-17.4-7S203.1,163,203.1,163s9.6-17.8,22.2-19.3a13.8,13.8,0,0,1,3.8-.3c-15.1-16.7-43.1-24.8-64.5-18.3s-40.9,26.5-50.8,42.5c-2.5,3.9-1.8,3.2-5.2,6.7-6.8,6.7-16.1.7-23,4.7a29.4,29.4,0,0,0-9.4,9.5,3.2,3.2,0,0,1-2.8,1.4c-42.8-.1-53,50.1-38,69.8a79.5,79.5,0,0,0,15,13.4c-8.9,6.3-9.6,20.5-3,29.3s18.5,12.1,29.3,10.9c5.6-.6,11.1-2.2,16.6-1.2s9.6,4.3,14.3,6.9a58.7,58.7,0,0,0,48.1,3.8c2.7-1,5.4-2.2,8.2-1.8s3.9,1.5,5.8,2.5c14.3,8,31.7,8.6,47.9,6.3s32-7.2,48.2-9.6c42.4-6.3,85.5,4.9,128.4,5.1,8.4.1,17.1-.4,24.9-3.7a29.2,29.2,0,0,0,10.2-7.2l.2-.2h0c20.1,4.5,42.3,8.8,60.5-.9,3.4-1.8,6.7-4.2,10.4-5.2,6.5-1.9,13.5.3,19.8,2.6s12.9,5,19.6,4.1S553,307.8,551.7,301.2ZM170.3,249.4C156.2,249.4,135,267,135,267a109.9,109.9,0,0,1,13.9-12.3,23.8,23.8,0,0,0-5.1-5.1l-2.9-1.7a27.2,27.2,0,0,0-11.3-3.2s7.9-1,13.7,2.5c3.4,1.7,5.1,5.2,5.9,7.3a83.1,83.1,0,0,1,8.2-5.4,23.3,23.3,0,0,1,26.6,3l10.3,9.1C191.3,258.6,179.9,249.4,170.3,249.4Z"/>
        </g>
    </g>
</g>
</svg>